<?xml version="1.0" encoding="UTF-8"?>
<svg version="1.1" xmlns="http://www.w3.org/2000/svg" width="1080" height="1080">
<path d="M0 0 C1.35041546 -0.00445668 1.35041546 -0.00445668 2.72811204 -0.0090034 C5.72160847 -0.01762158 8.71506458 -0.01919277 11.70857239 -0.02069092 C13.86449772 -0.02532393 16.02042224 -0.03034924 18.17634583 -0.03573608 C24.01747539 -0.04881454 29.85859349 -0.05529599 35.6997354 -0.05974674 C39.3541191 -0.06268451 43.00849971 -0.06679061 46.66288185 -0.07125092 C58.11153498 -0.08491313 69.56018099 -0.09458633 81.00884169 -0.09845281 C94.19726479 -0.10293216 107.38558417 -0.12047984 120.57397574 -0.1494534 C130.78745712 -0.17110801 141.00090939 -0.18115909 151.21441346 -0.18249393 C157.30580632 -0.18353913 163.39710151 -0.1893865 169.48847008 -0.20731354 C175.22180382 -0.22385989 180.95496715 -0.22591793 186.68831635 -0.21717453 C188.78361024 -0.2164077 190.87891355 -0.22069979 192.97418404 -0.23063278 C224.23755123 -0.37006287 224.23755123 -0.37006287 235.55158997 9.89044189 C241.50328414 16.01500685 243.66574513 22.68930661 243.99690247 31.14044189 C243.66139448 40.05936252 240.93374479 47.72841159 234.62190247 54.14044189 C223.96867369 62.93794695 211.2244608 62.56457934 198.13703918 62.48101807 C196.27351902 62.48017077 194.40999786 62.48064894 192.54647827 62.48234558 C187.51201824 62.48320294 182.47777457 62.46561923 177.44336462 62.44462371 C172.17298333 62.4258136 166.90259657 62.42410306 161.63218689 62.42054749 C151.66287752 62.41123973 141.69366736 62.38664316 131.72440159 62.35649902 C120.37010709 62.32291544 109.01580774 62.30645905 97.6614759 62.29141271 C74.31489464 62.26009247 50.96840831 62.20674925 27.62190247 62.14044189 C27.62190247 68.74044189 27.62190247 75.34044189 27.62190247 82.14044189 C30.96532776 82.11687622 30.96532776 82.11687622 34.376297 82.09283447 C41.79216729 82.04282616 49.20804559 82.00986919 56.6240406 81.98500538 C61.11446781 81.96943846 65.6047203 81.94836708 70.095047 81.91412354 C74.43931131 81.88120626 78.78340901 81.86352167 83.12778854 81.85581017 C84.7741495 81.85032409 86.42050274 81.83961373 88.06679153 81.82325172 C102.23274608 81.68823166 116.51991175 81.88600497 127.55158997 91.89044189 C133.50328414 98.01500685 135.66574513 104.68930661 135.99690247 113.14044189 C135.66139448 122.05936252 132.93374479 129.72841159 126.62190247 136.14044189 C115.84796488 145.03762906 103.12300906 144.5546161 89.92658997 144.43341064 C88.12484594 144.42780615 86.3230973 144.42354009 84.52134705 144.42054749 C79.80967797 144.40916584 75.09829218 144.37975718 70.38673401 144.34643555 C65.56672496 144.31558961 60.74666955 144.30201129 55.92658997 144.28692627 C46.49157057 144.25488025 37.0567602 144.20376598 27.62190247 144.14044189 C27.62190247 148.43044189 27.62190247 152.72044189 27.62190247 157.14044189 C30.79205208 157.13044914 30.79205208 157.13044914 34.02624512 157.12025452 C53.96255592 157.05885824 73.89885421 157.01426173 93.83523846 156.98500538 C104.08423289 156.96956402 114.33315777 156.94852692 124.58210754 156.91412354 C133.51944443 156.88413734 142.45673091 156.86484706 151.3941167 156.85817641 C156.12244428 156.85427973 160.85062772 156.84517939 165.57890892 156.82325172 C170.0382777 156.80274062 174.4974443 156.79663735 178.95685577 156.80111885 C180.58492701 156.80030014 182.2130057 156.7944222 183.84103584 156.78282547 C196.60110173 156.69646702 210.88240768 156.69489565 220.62190247 166.14044189 C227.43354193 175.38583838 228.61745524 183.95020628 227.62190247 195.14044189 C225.89402103 203.21776715 221.55657662 208.80535491 214.77815247 213.38653564 C204.45798561 219.15990768 192.2165073 218.42193042 180.76765442 218.36749268 C179.09117642 218.36692752 177.41469793 218.36724716 175.73822021 218.36837769 C171.21831047 218.36894812 166.69850833 218.35724419 162.17862344 218.34322977 C157.44342876 218.33067057 152.70823123 218.32954784 147.97302246 218.32717896 C139.02020864 218.32097937 130.06744406 218.30458927 121.11465186 218.28447998 C110.91629059 218.26207345 100.71792689 218.25111562 90.5195471 218.24108911 C69.55363741 218.22022161 48.58777478 218.18466936 27.62190247 218.14044189 C27.62190247 225.07044189 27.62190247 232.00044189 27.62190247 239.14044189 C29.46228088 239.12473145 31.3026593 239.109021 33.19880676 239.09283447 C39.3294676 239.0441497 45.46008217 239.00984849 51.59088421 238.98500538 C55.30226278 238.96945401 59.01342916 238.94841265 62.72468567 238.91412354 C66.3168218 238.88114867 69.90875589 238.86351009 73.50103188 238.85581017 C75.51532286 238.84769787 77.52953434 238.82434201 79.54370117 238.80055237 C91.17595146 238.79846101 103.84161046 239.62514864 112.62190247 248.14044189 C119.43354193 257.38583838 120.61745524 265.95020628 119.62190247 277.14044189 C117.89402103 285.21776715 113.55657662 290.80535491 106.77815247 295.38653564 C97.09862235 300.80151868 85.74514458 300.42123265 74.98518372 300.33575439 C73.61085213 300.33201407 72.23651784 300.32917193 70.86218262 300.32717896 C67.28329317 300.31962261 63.70457174 300.30004521 60.12574768 300.277771 C56.45847384 300.25713792 52.79117145 300.24802989 49.12385559 300.23809814 C41.95639055 300.21785679 34.78938407 300.17869113 27.62190247 300.14044189 C27.62190247 309.38044189 27.62190247 318.62044189 27.62190247 328.14044189 C30.02348129 328.13155945 32.42506012 328.122677 34.89941406 328.11352539 C57.54348472 328.03169808 80.18753584 327.97221761 102.83172131 327.93319321 C114.47302284 327.91259626 126.11421565 327.88453052 137.75544739 327.83868408 C147.90575194 327.7987285 158.05597772 327.77298825 168.20635873 327.76408792 C173.57747262 327.75888794 178.94836123 327.746726 184.31940269 327.71752167 C189.38289258 327.69021469 194.44606604 327.68202762 199.50962257 327.68801117 C201.36023304 327.68691774 203.21085495 327.67905547 205.06140137 327.66362 C217.8172096 327.56251198 230.65451839 327.79856114 240.97346497 336.44122314 C247.55144231 343.2218396 249.69443762 350.69680691 249.93440247 360.01544189 C249.73736027 369.81569852 247.76997913 375.97393838 240.91487122 383.12872314 C228.2824943 394.21164327 210.54473555 392.43192057 194.84333801 392.39923096 C192.649184 392.40194474 190.45503091 392.40550784 188.26087952 392.40985107 C182.32893105 392.41893286 176.39705252 392.41544779 170.46510291 392.4090929 C164.23813684 392.40400915 158.01117653 392.40873112 151.78421021 392.41186523 C140.65735052 392.41573117 129.53051819 392.40953601 118.40366391 392.39934656 C108.34398882 392.39041898 98.28435992 392.39195923 88.22468567 392.40118408 C76.50898247 392.41188446 64.79330813 392.41585178 53.07760078 392.40995955 C46.88844019 392.40685394 40.69931132 392.40639143 34.51015282 392.41303253 C28.6865106 392.41884537 22.86295486 392.41473754 17.0393219 392.40324402 C14.91220047 392.40061802 12.78507167 392.40132691 10.65795326 392.40576935 C-28.85072595 392.48062145 -28.85072595 392.48062145 -41.62809753 380.28887939 C-51.86917757 367.71612488 -52.55573988 352.13529731 -52.47575378 336.66387939 C-52.47433884 335.61261871 -52.47292389 334.56135803 -52.47146606 333.47824097 C-52.4659184 330.15727762 -52.45337595 326.83638448 -52.44059753 323.51544189 C-52.43557576 321.24851579 -52.43101404 318.98158862 -52.42692566 316.71466064 C-52.4168218 311.18987298 -52.39723654 305.665235 -52.37809753 300.14044189 C-61.61809753 300.14044189 -70.85809753 300.14044189 -80.37809753 300.14044189 C-80.37809753 336.44044189 -80.37809753 372.74044189 -80.37809753 410.14044189 C-66.52454285 410.09403564 -52.67098816 410.04762939 -38.39762878 409.99981689 C-29.61572475 409.9793763 -20.833838 409.95995456 -12.05192566 409.94512939 C1.8839254 409.92141441 15.81967956 409.89356705 29.75544739 409.83868408 C39.90575194 409.7987285 50.05597772 409.77298825 60.20635873 409.76408792 C65.57747262 409.75888794 70.94836123 409.746726 76.31940269 409.71752167 C81.38289258 409.69021469 86.44606604 409.68202762 91.50962257 409.68801117 C93.36023304 409.68691774 95.21085495 409.67905547 97.06140137 409.66362 C109.8172096 409.56251198 122.65451839 409.79856114 132.97346497 418.44122314 C139.55144231 425.2218396 141.69443762 432.69680691 141.93440247 442.01544189 C141.73736027 451.81569852 139.76997913 457.97393838 132.91487122 465.12872314 C120.2824943 476.21164327 102.54473555 474.43192057 86.84333801 474.39923096 C84.649184 474.40194474 82.45503091 474.40550784 80.26087952 474.40985107 C74.32893105 474.41893286 68.39705252 474.41544779 62.46510291 474.4090929 C56.23813684 474.40400915 50.01117653 474.40873112 43.78421021 474.41186523 C32.65735052 474.41573117 21.53051819 474.40953601 10.40366391 474.39934656 C0.34398882 474.39041898 -9.71564008 474.39195923 -19.77531433 474.40118408 C-31.49101753 474.41188446 -43.20669187 474.41585178 -54.92239922 474.40995955 C-61.11155981 474.40685394 -67.30068868 474.40639143 -73.48984718 474.41303253 C-79.3134894 474.41884537 -85.13704514 474.41473754 -90.9606781 474.40324402 C-93.08779953 474.40061802 -95.21492833 474.40132691 -97.34204674 474.40576935 C-136.85072595 474.48062145 -136.85072595 474.48062145 -149.62809753 462.28887939 C-160.15170484 449.36927221 -160.53328192 433.35246829 -160.5118103 417.49781799 C-160.51407586 416.25845731 -160.51634142 415.01909664 -160.51867563 413.74217957 C-160.52388475 410.32763629 -160.524665 406.91314596 -160.52348125 403.49860251 C-160.52327618 399.80588321 -160.52880612 396.1131716 -160.53353882 392.42045593 C-160.54182308 385.19507769 -160.54459265 377.96970761 -160.5451512 370.74432502 C-160.54562743 364.86702125 -160.54768754 358.98972015 -160.55085182 353.11241722 C-160.55965248 336.42487365 -160.56427214 319.7373365 -160.56352135 303.0497906 C-160.56348139 302.15133883 -160.56344144 301.25288706 -160.56340027 300.32720947 C-160.56335939 299.42765225 -160.56331851 298.52809503 -160.56327639 297.60127851 C-160.56287013 283.03001946 -160.57243616 268.45878628 -160.58653864 253.88753472 C-160.60092681 238.90204942 -160.60780747 223.91657671 -160.60694486 208.93108433 C-160.60661372 200.52747866 -160.60932412 192.1239001 -160.62012291 183.72030067 C-160.62926011 176.56425977 -160.63137686 169.40825828 -160.62461349 162.25221405 C-160.62136441 158.60680401 -160.62123273 154.96146945 -160.62996674 151.31606674 C-160.73209366 105.68229373 -160.73209366 105.68229373 -148.52653503 92.89044189 C-135.17776238 82.0172598 -118.61930223 81.98021693 -102.28044128 82.04278564 C-100.83598886 82.04465437 -99.3915358 82.04607612 -97.94708252 82.04707336 C-94.17423199 82.05086281 -90.40142092 82.06066192 -86.62858582 82.07177734 C-82.76710036 82.08206893 -78.90560843 82.08658747 -75.04411316 82.09161377 C-67.48875677 82.10228795 -59.93343271 82.11932062 -52.37809753 82.14044189 C-52.38857117 81.06786133 -52.3990448 79.99528076 -52.40983582 78.89019775 C-52.44656941 74.836522 -52.46918803 70.78286029 -52.48796082 66.72906494 C-52.49789877 64.98847972 -52.51145382 63.24791064 -52.52897644 61.50738525 C-52.8979996 23.85616895 -52.8979996 23.85616895 -40.52653503 10.89044189 C-28.8779034 1.40210195 -14.43234825 -0.01517395 0 0 Z M-80.37809753 144.14044189 C-80.37809753 175.49044189 -80.37809753 206.84044189 -80.37809753 239.14044189 C-71.13809753 239.14044189 -61.89809753 239.14044189 -52.37809753 239.14044189 C-52.37809753 207.79044189 -52.37809753 176.44044189 -52.37809753 144.14044189 C-61.61809753 144.14044189 -70.85809753 144.14044189 -80.37809753 144.14044189 Z " fill="#27A86E" transform="translate(520.3780975341797,222.85955810546875)"/>
<path d="M0 0 C18.40548695 -0.12032643 18.40548695 -0.12032643 26.33203125 -0.14648438 C31.71249415 -0.16432516 37.09280196 -0.18528749 42.47314453 -0.22631836 C46.81740885 -0.25923564 51.16150654 -0.27692023 55.50588608 -0.28463173 C57.15224704 -0.2901178 58.79860027 -0.30082817 60.44488907 -0.31719017 C74.61084361 -0.45221024 88.89800928 -0.25443693 99.9296875 9.75 C105.88138167 15.87456496 108.04384266 22.54886472 108.375 31 C108.03949201 39.91892062 105.31184233 47.5879697 99 54 C88.22606241 62.89718717 75.50110659 62.4141742 62.3046875 62.29296875 C60.50294347 62.28736426 58.70119484 62.2830982 56.89944458 62.28010559 C52.1877755 62.26872395 47.47638972 62.23931528 42.76483154 62.20599365 C37.09539645 62.16971176 31.42586594 62.15609976 25.75634766 62.13863373 C17.17070221 62.10967315 8.58567674 62.05213974 0 62 C0 41.54 0 21.08 0 0 Z " fill="#2AB674" transform="translate(548,305)"/>
<path d="M0 0 C7.98269594 -0.06318757 15.96446799 -0.12325961 23.94719696 -0.15525055 C27.66583635 -0.17098847 31.38426526 -0.19196215 35.1027832 -0.22631836 C38.69491933 -0.25929322 42.28685342 -0.2769318 45.87912941 -0.28463173 C47.89342039 -0.29274403 49.90763188 -0.31609988 51.92179871 -0.33988953 C63.55404899 -0.34198088 76.219708 0.48470675 85 9 C91.81163947 18.24539649 92.99555277 26.80976439 92 38 C90.27211857 46.07732525 85.93467416 51.66491302 79.15625 56.24609375 C69.47692057 61.66096452 58.12303653 61.28116071 47.36328125 61.1953125 C46.15555054 61.19329834 44.94781982 61.19128418 43.70349121 61.18920898 C39.23978822 61.17883252 34.77613985 61.15091073 30.3125 61.125 C15.3078125 61.063125 15.3078125 61.063125 0 61 C0 40.87 0 20.74 0 0 Z " fill="#29B674" transform="translate(548,462)"/>
</svg>
